# xmcd
#
# Track frame offsets: 
#        150
#        18525
#        43245
#        63391
#        78321
#        100432
#        125973
#        151898
#        167453
#        182540
#        218502
#        230599
#        247351
#        256420
#        280036
#
# Disc length: 4013 seconds
#
# Revision: 0
# Processed by: cddbd v1.5.2PL0 Copyright (c) Steve Scherf et al.
# Submitted via: ExactAudioCopy v0.95b4
#
DISCID=d30fab0f
DTITLE=The Rudy "Boy" Experiment - OOO... What a ride!
DYEAR=2005
DGENRE=Blues
TTITLE0=Too Many Cooks in the Kitchen
TTITLE1=The Thrill is Gone
TTITLE2=Tequila Drinking Woman
TTITLE3=The Gypsy Song
TTITLE4=Fool
TTITLE5=Dance for Me
TTITLE6=Lies
TTITLE7=Dog Face Soldier
TTITLE8=The New Mexico Song
TTITLE9=The Ballad of Babylon
TTITLE10=Fallin' Down
TTITLE11=Standin' Up
TTITLE12=Prelude to Fool (as heard on The Stink of Flesh soundtrack)
TTITLE13=Everyday is Monday
TTITLE14=Zozobra
EXTD=
EXTT0=
EXTT1=
EXTT2=
EXTT3=
EXTT4=
EXTT5=
EXTT6=
EXTT7=
EXTT8=
EXTT9=
EXTT10=
EXTT11=
EXTT12=
EXTT13=
EXTT14=
PLAYORDER=
